# xmcd
#
# Track frame offsets:
#	150
#	25467
#	51140
#	66545
#	80611
#	96154
#	125123
#	143023
#	156964
#	173078
#	192763
#	210641
#	221275
#	240699
#	265690
#	292220
#	311126
#
# Disc length: 4351 seconds
#
# Revision: 5
# Processed by: cddbd v1.5.2PL0 Copyright (c) Steve Scherf et al.
# Submitted via: audiograbber 1.83.01
#
DISCID=0610fd11
DTITLE=The Best of Verve Master Edition - Various
DYEAR=1998
DGENRE=Jazz
TTITLE0=Ella Fitzgerald - Just Another Rhumba
TTITLE1=Dizzy Gillespie, Sonny Rollins and Sonny Stitt - On The Sunny Side Of The
TTITLE1=Street
TTITLE2=The Oscar Peterson Trio - C-jam Blues
TTITLE3=Count Basie - Dinner With Friends
TTITLE4=Charlie Parker and Dizzy Gillespie - Bloomdido
TTITLE5=Duke Ellington and Johnny Hodges - Wabash Blues
TTITLE6=Louis Armstrong and Oscar Peterson - Makin' Whoopiee
TTITLE7=Kenny Burrell - Downstairs
TTITLE8=Stan Getz and Charlie Byrd - Samba Dees Days
TTITLE9=Dizzy Gillespie - November Afternoon
TTITLE10=Jimmy Smith - Main Title From "The Carpetbaggars"
TTITLE11=Erroll Garner - I've Got To Be A Rugcutter
TTITLE12=Coleman Hawkins and Ben Webster - You'd Be So Nice To Come Here To
TTITLE13=Billie Holiday - Yust One Of These Things
TTITLE14=Lester Young and Oscar Peterson Trio - Ab Lib Blues
TTITLE15=Bill Evans - One For Helen
TTITLE16=Clifford Brown - Stardust
EXTD=
EXTT0=
EXTT1=
EXTT2=
EXTT3=
EXTT4=
EXTT5=
EXTT6=
EXTT7=
EXTT8=
EXTT9=
EXTT10=
EXTT11=
EXTT12=
EXTT13=
EXTT14=
EXTT15=
EXTT16=
PLAYORDER=
